Coordinates
version=1
nRows=14
nColumns=36
inDegrees=yes

Units are S.I. units (second, meters, Newtons, ...)
If the header above contains a line with 'inDegrees', this indicates whether rotational values are in degrees (yes) or radians (no).

endheader
time	pelvis_tilt	pelvis_list	pelvis_rotation	pelvis_tx	pelvis_ty	pelvis_tz	hip_flexion_r	hip_adduction_r	hip_rotation_r	knee_angle_r	knee_angle_r_beta	ankle_angle_r	subtalar_angle_r	mtp_angle_r	hip_flexion_l	hip_adduction_l	hip_rotation_l	knee_angle_l	knee_angle_l_beta	ankle_angle_l	subtalar_angle_l	mtp_angle_l	lumbar_extension	lumbar_bending	lumbar_rotation	arm_flex_r	arm_add_r	arm_rot_r	elbow_flex_r	pro_sup_r	arm_flex_l	arm_add_l	arm_rot_l	elbow_flex_l	pro_sup_l
      4.20000000	    -29.45998231	     -4.95459310	      3.02381228	      0.79450032	      0.75204465	      0.17442229	     82.04637188	     -9.82129243	      0.72324834	     82.55698781	      1.44089126	     37.64393133	      2.64474786	     -7.49999987	     84.10772386	    -14.89268486	      2.72489765	     83.48170331	      1.45703059	     48.35086209	      7.56670772	     -7.49999987	    -33.36584376	      0.97473977	      5.07085542	    235.12637470	   -155.82819516	    178.85525374	    135.35943885	     90.36030696	    238.53792187	   -157.51111327	    188.12751755	    136.22257083	     90.22686013
      4.21666670	    -29.30092325	     -4.99209484	      3.03400001	      0.79430325	      0.75966313	      0.17231375	     81.44237133	     -9.87115437	      0.48857549	     81.68514532	      1.42567474	     37.22581623	      2.72524924	     -7.49999987	     83.57060142	    -14.78490344	      2.65643948	     82.75237365	      1.44430138	     48.15040927	      7.47480275	     -7.49999987	    -33.10981216	      1.06269272	      4.88056513	    234.65511490	   -155.70468450	    178.80560116	    135.27575606	     90.36963337	    238.27987915	   -157.32632071	    188.17735550	    135.93627252	     90.21243612
      4.23333330	    -28.50814463	     -5.00856107	      3.11294125	      0.79509681	      0.77256030	      0.17301698	     79.66827735	     -9.85093323	      0.15798209	     80.23127441	      1.40029990	     36.80285047	      2.76795418	     -7.49999987	     81.92883740	    -14.67276882	      2.49937853	     81.48411518	      1.42216610	     47.93661960	      7.49218710	     -7.49999987	    -33.55117159	      0.94851277	      4.90716279	    234.14168244	   -155.67439321	    179.34601368	    134.67319805	     85.18493700	    237.55184817	   -157.11106839	    188.75946580	    134.39499602	     85.04546921
      4.25000000	    -27.91089733	     -5.13474040	      3.27777521	      0.80046873	      0.78012945	      0.17453363	     77.94859401	     -9.85328160	     -0.28725198	     78.65103260	      1.37271948	     36.28160299	      2.80519304	     -7.49999987	     80.32156868	    -14.51485830	      2.43155414	     80.00635788	      1.39637437	     47.61701823	      7.56119063	     -7.49999987	    -33.60549977	      0.85302474	      4.91508283	    232.00160456	   -155.69980264	    179.51361087	    134.58617084	     85.39869258	    235.21997660	   -156.93700683	    188.84920493	    134.11671292	     85.24677302
      4.26666670	    -27.17340069	     -5.24472824	      3.45258175	      0.80022422	      0.79002254	      0.17407074	     75.91282635	     -9.83811820	     -0.78747266	     76.83750210	      1.34106740	     35.77415471	      2.74359289	     -7.49999987	     78.41158344	    -14.40357397	      2.33936506	     78.33217118	      1.36715430	     47.24863131	      7.70996229	     -7.49999987	    -33.68889340	      0.84793897	      4.94983425	    230.42690075	   -155.56096807	    179.65072387	    134.46642626	     85.65932395	    233.60053701	   -156.87391711	    188.58295637	    134.07645869	     85.46732230
      4.28333330	    -25.53380211	     -5.49514056	      3.71946810	      0.80081905	      0.79880920	      0.17182219	     72.79069501	     -9.73045397	     -1.50366305	     74.81487894	      1.30576597	     35.30816716	      2.67925329	     -7.49999987	     75.49835635	    -14.40835738	      2.34195173	     76.50151305	      1.33520329	     46.95375605	      7.93663472	     -7.49999987	    -34.70433718	      1.16792673	      4.95224473	    229.86065363	   -155.34027859	    179.32694621	    134.15033974	     84.50320607	    232.08259312	   -157.27551437	    186.79238379	    134.11233233	     84.29334152
      4.30000000	    -24.66951300	     -5.50146482	      3.97374807	      0.79150533	      0.80620566	      0.17211386	     70.75083102	     -9.82277582	     -2.00304960	     72.95209257	      1.27325421	     34.69954928	      2.70149385	     -7.49999987	     73.55563874	    -14.24427577	      2.11515756	     74.74938806	      1.30462294	     46.34456122	      8.04464795	     -7.49999987	    -34.66229109	      1.35358809	      4.72273640	    229.75116941	   -154.91943878	    179.66382268	    132.58383677	     85.31188769	    232.18194511	   -157.11672038	    186.80194475	    133.60180439	     84.97364321
      4.31666670	    -23.99507603	     -5.42231301	      4.12410473	      0.79166818	      0.80432358	      0.16573955	     69.25152079	    -10.02963038	     -2.43738439	     71.50171077	      1.24794027	     34.33751674	      3.11107515	     -7.49999987	     72.01079730	    -14.02592770	      1.89086996	     73.36945937	      1.28053864	     45.94772175	      8.18375144	     -7.49999987	    -33.57849372	      1.59311347	      4.19292397	    228.24995956	   -154.36205555	    179.82916715	    133.08325480	     83.20060801	    231.14276326	   -156.85122474	    186.32411859	    133.88914761	     82.78915248
      4.33333330	    -22.97419392	     -5.29413040	      4.31311213	      0.79237290	      0.82203317	      0.16630288	     67.14968391	    -10.24238998	     -2.93059690	     69.67629981	      1.21608084	     33.69439296	      3.19192571	     -7.49999987	     69.91404577	    -13.73270733	      1.65640913	     71.64350107	      1.25041498	     45.27662018	      7.97183148	     -7.49999987	    -33.38427149	      1.75833142	      3.43587956	    226.68327284	   -155.22788691	    179.30048751	    131.36532638	     92.73087830	    229.30619142	   -156.60232974	    185.16036870	    132.44189849	     90.40793408
      4.35000000	    -21.74337692	     -5.17920731	      4.48928270	      0.79294953	      0.83713946	      0.16558316	     64.56457364	    -10.40222059	     -3.52695419	     67.47722034	      1.17769966	     32.93745870	      3.37457537	     -7.49999987	     67.39528417	    -13.43455006	      1.45856430	     69.60733941	      1.21487726	     44.43151731	      7.78319226	     -7.49999987	    -33.39840828	      1.77979290	      2.89202923	    224.57068104	   -155.90152836	    178.82560466	    129.72923171	     93.72141535	    226.52802483	   -155.97629344	    185.59595161	    131.30637090	     90.41724019
      4.36666670	    -19.83094892	     -4.91039568	      4.62644435	      0.80718974	      0.84937570	      0.15779328	     60.83584050	    -10.53690326	     -4.07809357	     64.86622517	      1.13212920	     32.42555808	      3.72921802	     -7.49999987	     63.58398051	    -13.11700352	      1.11632957	     67.13315126	      1.17169453	     43.65004192	      7.83914162	     -7.49999987	    -33.70444854	      1.84835951	      2.39309741	    219.89625137	   -155.61515731	    178.44816530	    128.77611204	     91.79207324	    221.68661187	   -156.25679505	    185.04955914	    131.40764258	     88.63621939
      4.38333330	    -18.81365482	     -4.64883010	      4.82358317	      0.79970228	      0.86324249	      0.16272103	     58.24438596	    -10.70137411	     -4.44532613	     62.40630483	      1.08919549	     31.59036289	      3.96585269	     -7.49999987	     60.90217722	    -12.78451637	      0.62425382	     64.73321937	      1.12980781	     42.74497035	      7.85579857	     -7.49999987	    -33.01783633	      1.69089285	      1.81171479	    217.94146582	   -155.55877362	    178.19589747	    127.43058674	     91.92489751	    219.46503961	   -155.33753189	    185.66998338	    130.71556134	     88.75895754
      4.40000000	    -16.39128690	     -4.29949411	      4.96709077	      0.82824264	      0.88342551	      0.15286387	     53.01179189	    -10.76930142	     -5.18464233	     58.63563299	      1.02338485	     31.05332678	      4.50908512	     -7.49999987	     55.42464306	    -12.39557724	      0.15561007	     60.99009104	      1.06447790	     41.86460267	      8.02962279	     -7.49999987	    -33.24192996	      1.61630947	      1.41844284	    213.04559239	   -155.65475006	    178.18409479	    126.13864252	     90.63623315	    214.15051819	   -156.17411253	    184.87466152	    129.05157708	     87.65120888
      4.41666670	    -14.32676423	     -3.87979419	      5.08045503	      0.83246559	      0.89791919	      0.14885858	     48.05535433	    -10.80403084	     -5.64311758	     54.78116696	      0.95611173	     30.23746277	      4.77507831	     -7.49999987	     50.11874252	    -12.01998691	     -0.61279779	     57.00582984	      0.99493942	     40.87053003	      8.58777923	     -7.49999987	    -32.89576476	      1.53452711	      0.70041526	    210.17905176	   -155.79087128	    178.63443312	    124.88613615	     93.82059687	    210.59092496	   -156.23435998	    184.39406865	    128.15940898	     90.66583895
